<mxfile host="Electron" agent="Mozilla/5.0 (Windows NT 10.0; Win64; x64) AppleWebKit/537.36 (KHTML, like Gecko) draw.io/26.0.4 Chrome/128.0.6613.186 Electron/32.2.5 Safari/537.36" version="26.0.4">
  <diagram name="Page-1" id="S-_51ffofvbeW6IGyT07">
    <mxGraphModel dx="1434" dy="844" grid="1" gridSize="10" guides="1" tooltips="1" connect="1" arrows="1" fold="1" page="1" pageScale="1" pageWidth="850" pageHeight="1100" math="0" shadow="0">
      <root>
        <mxCell id="0" />
        <mxCell id="1" parent="0" />
        <mxCell id="AZiQQv1GhbqMDrCBCahB-1" value="&lt;h1&gt;&lt;font style=&quot;font-size: 48px;&quot;&gt;Data Mart&amp;nbsp;&lt;/font&gt;&lt;font style=&quot;font-weight: normal; font-size: 28px;&quot;&gt;(Star Schema)&lt;/font&gt;&lt;/h1&gt;" style="text;html=1;align=left;verticalAlign=middle;whiteSpace=wrap;rounded=0;" parent="1" vertex="1">
          <mxGeometry x="40" y="40" width="430" height="80" as="geometry" />
        </mxCell>
        <mxCell id="AZiQQv1GhbqMDrCBCahB-2" value="gold.dim_customers" style="shape=table;startSize=40;container=1;collapsible=1;childLayout=tableLayout;fixedRows=1;rowLines=0;fontStyle=1;align=center;resizeLast=1;html=1;rounded=1;fillColor=#fff2cc;strokeColor=#d6b656;fontSize=16;" parent="1" vertex="1">
          <mxGeometry x="310" y="220" width="245" height="440" as="geometry" />
        </mxCell>
        <mxCell id="AZiQQv1GhbqMDrCBCahB-3" value="" style="shape=tableRow;horizontal=0;startSize=0;swimlaneHead=0;swimlaneBody=0;fillColor=none;collapsible=0;dropTarget=0;points=[[0,0.5],[1,0.5]];portConstraint=eastwest;top=0;left=0;right=0;bottom=1;fontSize=16;" parent="AZiQQv1GhbqMDrCBCahB-2" vertex="1">
          <mxGeometry y="40" width="245" height="40" as="geometry" />
        </mxCell>
        <mxCell id="AZiQQv1GhbqMDrCBCahB-4" value="PK" style="shape=partialRectangle;connectable=0;fillColor=none;top=0;left=0;bottom=0;right=0;fontStyle=1;overflow=hidden;whiteSpace=wrap;html=1;fontSize=16;" parent="AZiQQv1GhbqMDrCBCahB-3" vertex="1">
          <mxGeometry width="30" height="40" as="geometry">
            <mxRectangle width="30" height="40" as="alternateBounds" />
          </mxGeometry>
        </mxCell>
        <mxCell id="AZiQQv1GhbqMDrCBCahB-5" value="customer_key" style="shape=partialRectangle;connectable=0;fillColor=none;top=0;left=0;bottom=0;right=0;align=left;spacingLeft=6;fontStyle=5;overflow=hidden;whiteSpace=wrap;html=1;fontSize=16;" parent="AZiQQv1GhbqMDrCBCahB-3" vertex="1">
          <mxGeometry x="30" width="215" height="40" as="geometry">
            <mxRectangle width="215" height="40" as="alternateBounds" />
          </mxGeometry>
        </mxCell>
        <mxCell id="AZiQQv1GhbqMDrCBCahB-6" value="" style="shape=tableRow;horizontal=0;startSize=0;swimlaneHead=0;swimlaneBody=0;fillColor=none;collapsible=0;dropTarget=0;points=[[0,0.5],[1,0.5]];portConstraint=eastwest;top=0;left=0;right=0;bottom=0;fontSize=16;fontStyle=1" parent="AZiQQv1GhbqMDrCBCahB-2" vertex="1">
          <mxGeometry y="80" width="245" height="40" as="geometry" />
        </mxCell>
        <mxCell id="AZiQQv1GhbqMDrCBCahB-7" value="" style="shape=partialRectangle;connectable=0;fillColor=none;top=0;left=0;bottom=0;right=0;editable=1;overflow=hidden;whiteSpace=wrap;html=1;fontSize=16;fontStyle=1" parent="AZiQQv1GhbqMDrCBCahB-6" vertex="1">
          <mxGeometry width="30" height="40" as="geometry">
            <mxRectangle width="30" height="40" as="alternateBounds" />
          </mxGeometry>
        </mxCell>
        <mxCell id="AZiQQv1GhbqMDrCBCahB-8" value="customer_id" style="shape=partialRectangle;connectable=0;fillColor=none;top=0;left=0;bottom=0;right=0;align=left;spacingLeft=6;overflow=hidden;whiteSpace=wrap;html=1;fontSize=16;fontStyle=1" parent="AZiQQv1GhbqMDrCBCahB-6" vertex="1">
          <mxGeometry x="30" width="215" height="40" as="geometry">
            <mxRectangle width="215" height="40" as="alternateBounds" />
          </mxGeometry>
        </mxCell>
        <mxCell id="AZiQQv1GhbqMDrCBCahB-9" value="" style="shape=tableRow;horizontal=0;startSize=0;swimlaneHead=0;swimlaneBody=0;fillColor=none;collapsible=0;dropTarget=0;points=[[0,0.5],[1,0.5]];portConstraint=eastwest;top=0;left=0;right=0;bottom=0;fontSize=16;fontStyle=1" parent="AZiQQv1GhbqMDrCBCahB-2" vertex="1">
          <mxGeometry y="120" width="245" height="40" as="geometry" />
        </mxCell>
        <mxCell id="AZiQQv1GhbqMDrCBCahB-10" value="" style="shape=partialRectangle;connectable=0;fillColor=none;top=0;left=0;bottom=0;right=0;editable=1;overflow=hidden;whiteSpace=wrap;html=1;fontSize=16;fontStyle=1" parent="AZiQQv1GhbqMDrCBCahB-9" vertex="1">
          <mxGeometry width="30" height="40" as="geometry">
            <mxRectangle width="30" height="40" as="alternateBounds" />
          </mxGeometry>
        </mxCell>
        <mxCell id="AZiQQv1GhbqMDrCBCahB-11" value="customer_number" style="shape=partialRectangle;connectable=0;fillColor=none;top=0;left=0;bottom=0;right=0;align=left;spacingLeft=6;overflow=hidden;whiteSpace=wrap;html=1;fontSize=16;fontStyle=1" parent="AZiQQv1GhbqMDrCBCahB-9" vertex="1">
          <mxGeometry x="30" width="215" height="40" as="geometry">
            <mxRectangle width="215" height="40" as="alternateBounds" />
          </mxGeometry>
        </mxCell>
        <mxCell id="AZiQQv1GhbqMDrCBCahB-12" value="" style="shape=tableRow;horizontal=0;startSize=0;swimlaneHead=0;swimlaneBody=0;fillColor=none;collapsible=0;dropTarget=0;points=[[0,0.5],[1,0.5]];portConstraint=eastwest;top=0;left=0;right=0;bottom=0;fontSize=16;fontStyle=1" parent="AZiQQv1GhbqMDrCBCahB-2" vertex="1">
          <mxGeometry y="160" width="245" height="40" as="geometry" />
        </mxCell>
        <mxCell id="AZiQQv1GhbqMDrCBCahB-13" value="" style="shape=partialRectangle;connectable=0;fillColor=none;top=0;left=0;bottom=0;right=0;editable=1;overflow=hidden;whiteSpace=wrap;html=1;fontSize=16;fontStyle=1" parent="AZiQQv1GhbqMDrCBCahB-12" vertex="1">
          <mxGeometry width="30" height="40" as="geometry">
            <mxRectangle width="30" height="40" as="alternateBounds" />
          </mxGeometry>
        </mxCell>
        <mxCell id="AZiQQv1GhbqMDrCBCahB-14" value="first_name" style="shape=partialRectangle;connectable=0;fillColor=none;top=0;left=0;bottom=0;right=0;align=left;spacingLeft=6;overflow=hidden;whiteSpace=wrap;html=1;fontSize=16;fontStyle=1" parent="AZiQQv1GhbqMDrCBCahB-12" vertex="1">
          <mxGeometry x="30" width="215" height="40" as="geometry">
            <mxRectangle width="215" height="40" as="alternateBounds" />
          </mxGeometry>
        </mxCell>
        <mxCell id="AZiQQv1GhbqMDrCBCahB-15" value="" style="shape=tableRow;horizontal=0;startSize=0;swimlaneHead=0;swimlaneBody=0;fillColor=none;collapsible=0;dropTarget=0;points=[[0,0.5],[1,0.5]];portConstraint=eastwest;top=0;left=0;right=0;bottom=0;fontSize=16;fontStyle=1" parent="AZiQQv1GhbqMDrCBCahB-2" vertex="1">
          <mxGeometry y="200" width="245" height="40" as="geometry" />
        </mxCell>
        <mxCell id="AZiQQv1GhbqMDrCBCahB-16" value="" style="shape=partialRectangle;connectable=0;fillColor=none;top=0;left=0;bottom=0;right=0;editable=1;overflow=hidden;whiteSpace=wrap;html=1;fontSize=16;fontStyle=1" parent="AZiQQv1GhbqMDrCBCahB-15" vertex="1">
          <mxGeometry width="30" height="40" as="geometry">
            <mxRectangle width="30" height="40" as="alternateBounds" />
          </mxGeometry>
        </mxCell>
        <mxCell id="AZiQQv1GhbqMDrCBCahB-17" value="last_name" style="shape=partialRectangle;connectable=0;fillColor=none;top=0;left=0;bottom=0;right=0;align=left;spacingLeft=6;overflow=hidden;whiteSpace=wrap;html=1;fontSize=16;fontStyle=1" parent="AZiQQv1GhbqMDrCBCahB-15" vertex="1">
          <mxGeometry x="30" width="215" height="40" as="geometry">
            <mxRectangle width="215" height="40" as="alternateBounds" />
          </mxGeometry>
        </mxCell>
        <mxCell id="AZiQQv1GhbqMDrCBCahB-18" value="" style="shape=tableRow;horizontal=0;startSize=0;swimlaneHead=0;swimlaneBody=0;fillColor=none;collapsible=0;dropTarget=0;points=[[0,0.5],[1,0.5]];portConstraint=eastwest;top=0;left=0;right=0;bottom=0;fontSize=16;fontStyle=1" parent="AZiQQv1GhbqMDrCBCahB-2" vertex="1">
          <mxGeometry y="240" width="245" height="40" as="geometry" />
        </mxCell>
        <mxCell id="AZiQQv1GhbqMDrCBCahB-19" value="" style="shape=partialRectangle;connectable=0;fillColor=none;top=0;left=0;bottom=0;right=0;editable=1;overflow=hidden;whiteSpace=wrap;html=1;fontSize=16;fontStyle=1" parent="AZiQQv1GhbqMDrCBCahB-18" vertex="1">
          <mxGeometry width="30" height="40" as="geometry">
            <mxRectangle width="30" height="40" as="alternateBounds" />
          </mxGeometry>
        </mxCell>
        <mxCell id="AZiQQv1GhbqMDrCBCahB-20" value="country" style="shape=partialRectangle;connectable=0;fillColor=none;top=0;left=0;bottom=0;right=0;align=left;spacingLeft=6;overflow=hidden;whiteSpace=wrap;html=1;fontSize=16;fontStyle=1" parent="AZiQQv1GhbqMDrCBCahB-18" vertex="1">
          <mxGeometry x="30" width="215" height="40" as="geometry">
            <mxRectangle width="215" height="40" as="alternateBounds" />
          </mxGeometry>
        </mxCell>
        <mxCell id="AZiQQv1GhbqMDrCBCahB-21" value="" style="shape=tableRow;horizontal=0;startSize=0;swimlaneHead=0;swimlaneBody=0;fillColor=none;collapsible=0;dropTarget=0;points=[[0,0.5],[1,0.5]];portConstraint=eastwest;top=0;left=0;right=0;bottom=0;fontSize=16;fontStyle=1" parent="AZiQQv1GhbqMDrCBCahB-2" vertex="1">
          <mxGeometry y="280" width="245" height="40" as="geometry" />
        </mxCell>
        <mxCell id="AZiQQv1GhbqMDrCBCahB-22" value="" style="shape=partialRectangle;connectable=0;fillColor=none;top=0;left=0;bottom=0;right=0;editable=1;overflow=hidden;whiteSpace=wrap;html=1;fontSize=16;fontStyle=1" parent="AZiQQv1GhbqMDrCBCahB-21" vertex="1">
          <mxGeometry width="30" height="40" as="geometry">
            <mxRectangle width="30" height="40" as="alternateBounds" />
          </mxGeometry>
        </mxCell>
        <mxCell id="AZiQQv1GhbqMDrCBCahB-23" value="marital_status" style="shape=partialRectangle;connectable=0;fillColor=none;top=0;left=0;bottom=0;right=0;align=left;spacingLeft=6;overflow=hidden;whiteSpace=wrap;html=1;fontSize=16;fontStyle=1" parent="AZiQQv1GhbqMDrCBCahB-21" vertex="1">
          <mxGeometry x="30" width="215" height="40" as="geometry">
            <mxRectangle width="215" height="40" as="alternateBounds" />
          </mxGeometry>
        </mxCell>
        <mxCell id="AZiQQv1GhbqMDrCBCahB-24" value="" style="shape=tableRow;horizontal=0;startSize=0;swimlaneHead=0;swimlaneBody=0;fillColor=none;collapsible=0;dropTarget=0;points=[[0,0.5],[1,0.5]];portConstraint=eastwest;top=0;left=0;right=0;bottom=0;fontSize=16;fontStyle=1" parent="AZiQQv1GhbqMDrCBCahB-2" vertex="1">
          <mxGeometry y="320" width="245" height="40" as="geometry" />
        </mxCell>
        <mxCell id="AZiQQv1GhbqMDrCBCahB-25" value="" style="shape=partialRectangle;connectable=0;fillColor=none;top=0;left=0;bottom=0;right=0;editable=1;overflow=hidden;whiteSpace=wrap;html=1;fontSize=16;fontStyle=1" parent="AZiQQv1GhbqMDrCBCahB-24" vertex="1">
          <mxGeometry width="30" height="40" as="geometry">
            <mxRectangle width="30" height="40" as="alternateBounds" />
          </mxGeometry>
        </mxCell>
        <mxCell id="AZiQQv1GhbqMDrCBCahB-26" value="gender" style="shape=partialRectangle;connectable=0;fillColor=none;top=0;left=0;bottom=0;right=0;align=left;spacingLeft=6;overflow=hidden;whiteSpace=wrap;html=1;fontSize=16;fontStyle=1" parent="AZiQQv1GhbqMDrCBCahB-24" vertex="1">
          <mxGeometry x="30" width="215" height="40" as="geometry">
            <mxRectangle width="215" height="40" as="alternateBounds" />
          </mxGeometry>
        </mxCell>
        <mxCell id="AZiQQv1GhbqMDrCBCahB-27" value="" style="shape=tableRow;horizontal=0;startSize=0;swimlaneHead=0;swimlaneBody=0;fillColor=none;collapsible=0;dropTarget=0;points=[[0,0.5],[1,0.5]];portConstraint=eastwest;top=0;left=0;right=0;bottom=0;fontSize=16;fontStyle=1" parent="AZiQQv1GhbqMDrCBCahB-2" vertex="1">
          <mxGeometry y="360" width="245" height="40" as="geometry" />
        </mxCell>
        <mxCell id="AZiQQv1GhbqMDrCBCahB-28" value="" style="shape=partialRectangle;connectable=0;fillColor=none;top=0;left=0;bottom=0;right=0;editable=1;overflow=hidden;whiteSpace=wrap;html=1;fontSize=16;fontStyle=1" parent="AZiQQv1GhbqMDrCBCahB-27" vertex="1">
          <mxGeometry width="30" height="40" as="geometry">
            <mxRectangle width="30" height="40" as="alternateBounds" />
          </mxGeometry>
        </mxCell>
        <mxCell id="AZiQQv1GhbqMDrCBCahB-29" value="birthdate" style="shape=partialRectangle;connectable=0;fillColor=none;top=0;left=0;bottom=0;right=0;align=left;spacingLeft=6;overflow=hidden;whiteSpace=wrap;html=1;fontSize=16;fontStyle=1" parent="AZiQQv1GhbqMDrCBCahB-27" vertex="1">
          <mxGeometry x="30" width="215" height="40" as="geometry">
            <mxRectangle width="215" height="40" as="alternateBounds" />
          </mxGeometry>
        </mxCell>
        <mxCell id="AZiQQv1GhbqMDrCBCahB-30" value="" style="shape=tableRow;horizontal=0;startSize=0;swimlaneHead=0;swimlaneBody=0;fillColor=none;collapsible=0;dropTarget=0;points=[[0,0.5],[1,0.5]];portConstraint=eastwest;top=0;left=0;right=0;bottom=0;fontSize=16;fontStyle=1" parent="AZiQQv1GhbqMDrCBCahB-2" vertex="1">
          <mxGeometry y="400" width="245" height="40" as="geometry" />
        </mxCell>
        <mxCell id="AZiQQv1GhbqMDrCBCahB-31" value="" style="shape=partialRectangle;connectable=0;fillColor=none;top=0;left=0;bottom=0;right=0;editable=1;overflow=hidden;whiteSpace=wrap;html=1;fontSize=16;fontStyle=1" parent="AZiQQv1GhbqMDrCBCahB-30" vertex="1">
          <mxGeometry width="30" height="40" as="geometry">
            <mxRectangle width="30" height="40" as="alternateBounds" />
          </mxGeometry>
        </mxCell>
        <mxCell id="AZiQQv1GhbqMDrCBCahB-32" value="country" style="shape=partialRectangle;connectable=0;fillColor=none;top=0;left=0;bottom=0;right=0;align=left;spacingLeft=6;overflow=hidden;whiteSpace=wrap;html=1;fontSize=16;fontStyle=1" parent="AZiQQv1GhbqMDrCBCahB-30" vertex="1">
          <mxGeometry x="30" width="215" height="40" as="geometry">
            <mxRectangle width="215" height="40" as="alternateBounds" />
          </mxGeometry>
        </mxCell>
        <mxCell id="AZiQQv1GhbqMDrCBCahB-33" value="gold.dim_products" style="shape=table;startSize=40;container=1;collapsible=1;childLayout=tableLayout;fixedRows=1;rowLines=0;fontStyle=1;align=center;resizeLast=1;html=1;rounded=1;fillColor=#fff2cc;strokeColor=#d6b656;fontSize=16;" parent="1" vertex="1">
          <mxGeometry x="1155" y="220" width="245" height="480" as="geometry" />
        </mxCell>
        <mxCell id="AZiQQv1GhbqMDrCBCahB-34" value="" style="shape=tableRow;horizontal=0;startSize=0;swimlaneHead=0;swimlaneBody=0;fillColor=none;collapsible=0;dropTarget=0;points=[[0,0.5],[1,0.5]];portConstraint=eastwest;top=0;left=0;right=0;bottom=1;fontSize=16;" parent="AZiQQv1GhbqMDrCBCahB-33" vertex="1">
          <mxGeometry y="40" width="245" height="40" as="geometry" />
        </mxCell>
        <mxCell id="AZiQQv1GhbqMDrCBCahB-35" value="PK" style="shape=partialRectangle;connectable=0;fillColor=none;top=0;left=0;bottom=0;right=0;fontStyle=1;overflow=hidden;whiteSpace=wrap;html=1;fontSize=16;" parent="AZiQQv1GhbqMDrCBCahB-34" vertex="1">
          <mxGeometry width="30" height="40" as="geometry">
            <mxRectangle width="30" height="40" as="alternateBounds" />
          </mxGeometry>
        </mxCell>
        <mxCell id="AZiQQv1GhbqMDrCBCahB-36" value="product_key" style="shape=partialRectangle;connectable=0;fillColor=none;top=0;left=0;bottom=0;right=0;align=left;spacingLeft=6;fontStyle=5;overflow=hidden;whiteSpace=wrap;html=1;fontSize=16;" parent="AZiQQv1GhbqMDrCBCahB-34" vertex="1">
          <mxGeometry x="30" width="215" height="40" as="geometry">
            <mxRectangle width="215" height="40" as="alternateBounds" />
          </mxGeometry>
        </mxCell>
        <mxCell id="AZiQQv1GhbqMDrCBCahB-37" value="" style="shape=tableRow;horizontal=0;startSize=0;swimlaneHead=0;swimlaneBody=0;fillColor=none;collapsible=0;dropTarget=0;points=[[0,0.5],[1,0.5]];portConstraint=eastwest;top=0;left=0;right=0;bottom=0;fontSize=16;fontStyle=1" parent="AZiQQv1GhbqMDrCBCahB-33" vertex="1">
          <mxGeometry y="80" width="245" height="40" as="geometry" />
        </mxCell>
        <mxCell id="AZiQQv1GhbqMDrCBCahB-38" value="" style="shape=partialRectangle;connectable=0;fillColor=none;top=0;left=0;bottom=0;right=0;editable=1;overflow=hidden;whiteSpace=wrap;html=1;fontSize=16;fontStyle=1" parent="AZiQQv1GhbqMDrCBCahB-37" vertex="1">
          <mxGeometry width="30" height="40" as="geometry">
            <mxRectangle width="30" height="40" as="alternateBounds" />
          </mxGeometry>
        </mxCell>
        <mxCell id="AZiQQv1GhbqMDrCBCahB-39" value="product_id" style="shape=partialRectangle;connectable=0;fillColor=none;top=0;left=0;bottom=0;right=0;align=left;spacingLeft=6;overflow=hidden;whiteSpace=wrap;html=1;fontSize=16;fontStyle=1" parent="AZiQQv1GhbqMDrCBCahB-37" vertex="1">
          <mxGeometry x="30" width="215" height="40" as="geometry">
            <mxRectangle width="215" height="40" as="alternateBounds" />
          </mxGeometry>
        </mxCell>
        <mxCell id="AZiQQv1GhbqMDrCBCahB-40" value="" style="shape=tableRow;horizontal=0;startSize=0;swimlaneHead=0;swimlaneBody=0;fillColor=none;collapsible=0;dropTarget=0;points=[[0,0.5],[1,0.5]];portConstraint=eastwest;top=0;left=0;right=0;bottom=0;fontSize=16;fontStyle=1" parent="AZiQQv1GhbqMDrCBCahB-33" vertex="1">
          <mxGeometry y="120" width="245" height="40" as="geometry" />
        </mxCell>
        <mxCell id="AZiQQv1GhbqMDrCBCahB-41" value="" style="shape=partialRectangle;connectable=0;fillColor=none;top=0;left=0;bottom=0;right=0;editable=1;overflow=hidden;whiteSpace=wrap;html=1;fontSize=16;fontStyle=1" parent="AZiQQv1GhbqMDrCBCahB-40" vertex="1">
          <mxGeometry width="30" height="40" as="geometry">
            <mxRectangle width="30" height="40" as="alternateBounds" />
          </mxGeometry>
        </mxCell>
        <mxCell id="AZiQQv1GhbqMDrCBCahB-42" value="product_number" style="shape=partialRectangle;connectable=0;fillColor=none;top=0;left=0;bottom=0;right=0;align=left;spacingLeft=6;overflow=hidden;whiteSpace=wrap;html=1;fontSize=16;fontStyle=1" parent="AZiQQv1GhbqMDrCBCahB-40" vertex="1">
          <mxGeometry x="30" width="215" height="40" as="geometry">
            <mxRectangle width="215" height="40" as="alternateBounds" />
          </mxGeometry>
        </mxCell>
        <mxCell id="AZiQQv1GhbqMDrCBCahB-43" value="" style="shape=tableRow;horizontal=0;startSize=0;swimlaneHead=0;swimlaneBody=0;fillColor=none;collapsible=0;dropTarget=0;points=[[0,0.5],[1,0.5]];portConstraint=eastwest;top=0;left=0;right=0;bottom=0;fontSize=16;fontStyle=1" parent="AZiQQv1GhbqMDrCBCahB-33" vertex="1">
          <mxGeometry y="160" width="245" height="40" as="geometry" />
        </mxCell>
        <mxCell id="AZiQQv1GhbqMDrCBCahB-44" value="" style="shape=partialRectangle;connectable=0;fillColor=none;top=0;left=0;bottom=0;right=0;editable=1;overflow=hidden;whiteSpace=wrap;html=1;fontSize=16;fontStyle=1" parent="AZiQQv1GhbqMDrCBCahB-43" vertex="1">
          <mxGeometry width="30" height="40" as="geometry">
            <mxRectangle width="30" height="40" as="alternateBounds" />
          </mxGeometry>
        </mxCell>
        <mxCell id="AZiQQv1GhbqMDrCBCahB-45" value="product_name" style="shape=partialRectangle;connectable=0;fillColor=none;top=0;left=0;bottom=0;right=0;align=left;spacingLeft=6;overflow=hidden;whiteSpace=wrap;html=1;fontSize=16;fontStyle=1" parent="AZiQQv1GhbqMDrCBCahB-43" vertex="1">
          <mxGeometry x="30" width="215" height="40" as="geometry">
            <mxRectangle width="215" height="40" as="alternateBounds" />
          </mxGeometry>
        </mxCell>
        <mxCell id="AZiQQv1GhbqMDrCBCahB-46" value="" style="shape=tableRow;horizontal=0;startSize=0;swimlaneHead=0;swimlaneBody=0;fillColor=none;collapsible=0;dropTarget=0;points=[[0,0.5],[1,0.5]];portConstraint=eastwest;top=0;left=0;right=0;bottom=0;fontSize=16;fontStyle=1" parent="AZiQQv1GhbqMDrCBCahB-33" vertex="1">
          <mxGeometry y="200" width="245" height="40" as="geometry" />
        </mxCell>
        <mxCell id="AZiQQv1GhbqMDrCBCahB-47" value="" style="shape=partialRectangle;connectable=0;fillColor=none;top=0;left=0;bottom=0;right=0;editable=1;overflow=hidden;whiteSpace=wrap;html=1;fontSize=16;fontStyle=1" parent="AZiQQv1GhbqMDrCBCahB-46" vertex="1">
          <mxGeometry width="30" height="40" as="geometry">
            <mxRectangle width="30" height="40" as="alternateBounds" />
          </mxGeometry>
        </mxCell>
        <mxCell id="AZiQQv1GhbqMDrCBCahB-48" value="category_id" style="shape=partialRectangle;connectable=0;fillColor=none;top=0;left=0;bottom=0;right=0;align=left;spacingLeft=6;overflow=hidden;whiteSpace=wrap;html=1;fontSize=16;fontStyle=1" parent="AZiQQv1GhbqMDrCBCahB-46" vertex="1">
          <mxGeometry x="30" width="215" height="40" as="geometry">
            <mxRectangle width="215" height="40" as="alternateBounds" />
          </mxGeometry>
        </mxCell>
        <mxCell id="AZiQQv1GhbqMDrCBCahB-49" value="" style="shape=tableRow;horizontal=0;startSize=0;swimlaneHead=0;swimlaneBody=0;fillColor=none;collapsible=0;dropTarget=0;points=[[0,0.5],[1,0.5]];portConstraint=eastwest;top=0;left=0;right=0;bottom=0;fontSize=16;fontStyle=1" parent="AZiQQv1GhbqMDrCBCahB-33" vertex="1">
          <mxGeometry y="240" width="245" height="40" as="geometry" />
        </mxCell>
        <mxCell id="AZiQQv1GhbqMDrCBCahB-50" value="" style="shape=partialRectangle;connectable=0;fillColor=none;top=0;left=0;bottom=0;right=0;editable=1;overflow=hidden;whiteSpace=wrap;html=1;fontSize=16;fontStyle=1" parent="AZiQQv1GhbqMDrCBCahB-49" vertex="1">
          <mxGeometry width="30" height="40" as="geometry">
            <mxRectangle width="30" height="40" as="alternateBounds" />
          </mxGeometry>
        </mxCell>
        <mxCell id="AZiQQv1GhbqMDrCBCahB-51" value="category" style="shape=partialRectangle;connectable=0;fillColor=none;top=0;left=0;bottom=0;right=0;align=left;spacingLeft=6;overflow=hidden;whiteSpace=wrap;html=1;fontSize=16;fontStyle=1" parent="AZiQQv1GhbqMDrCBCahB-49" vertex="1">
          <mxGeometry x="30" width="215" height="40" as="geometry">
            <mxRectangle width="215" height="40" as="alternateBounds" />
          </mxGeometry>
        </mxCell>
        <mxCell id="AZiQQv1GhbqMDrCBCahB-52" value="" style="shape=tableRow;horizontal=0;startSize=0;swimlaneHead=0;swimlaneBody=0;fillColor=none;collapsible=0;dropTarget=0;points=[[0,0.5],[1,0.5]];portConstraint=eastwest;top=0;left=0;right=0;bottom=0;fontSize=16;fontStyle=1" parent="AZiQQv1GhbqMDrCBCahB-33" vertex="1">
          <mxGeometry y="280" width="245" height="40" as="geometry" />
        </mxCell>
        <mxCell id="AZiQQv1GhbqMDrCBCahB-53" value="" style="shape=partialRectangle;connectable=0;fillColor=none;top=0;left=0;bottom=0;right=0;editable=1;overflow=hidden;whiteSpace=wrap;html=1;fontSize=16;fontStyle=1" parent="AZiQQv1GhbqMDrCBCahB-52" vertex="1">
          <mxGeometry width="30" height="40" as="geometry">
            <mxRectangle width="30" height="40" as="alternateBounds" />
          </mxGeometry>
        </mxCell>
        <mxCell id="AZiQQv1GhbqMDrCBCahB-54" value="subcategory" style="shape=partialRectangle;connectable=0;fillColor=none;top=0;left=0;bottom=0;right=0;align=left;spacingLeft=6;overflow=hidden;whiteSpace=wrap;html=1;fontSize=16;fontStyle=1" parent="AZiQQv1GhbqMDrCBCahB-52" vertex="1">
          <mxGeometry x="30" width="215" height="40" as="geometry">
            <mxRectangle width="215" height="40" as="alternateBounds" />
          </mxGeometry>
        </mxCell>
        <mxCell id="AZiQQv1GhbqMDrCBCahB-55" value="" style="shape=tableRow;horizontal=0;startSize=0;swimlaneHead=0;swimlaneBody=0;fillColor=none;collapsible=0;dropTarget=0;points=[[0,0.5],[1,0.5]];portConstraint=eastwest;top=0;left=0;right=0;bottom=0;fontSize=16;fontStyle=1" parent="AZiQQv1GhbqMDrCBCahB-33" vertex="1">
          <mxGeometry y="320" width="245" height="40" as="geometry" />
        </mxCell>
        <mxCell id="AZiQQv1GhbqMDrCBCahB-56" value="" style="shape=partialRectangle;connectable=0;fillColor=none;top=0;left=0;bottom=0;right=0;editable=1;overflow=hidden;whiteSpace=wrap;html=1;fontSize=16;fontStyle=1" parent="AZiQQv1GhbqMDrCBCahB-55" vertex="1">
          <mxGeometry width="30" height="40" as="geometry">
            <mxRectangle width="30" height="40" as="alternateBounds" />
          </mxGeometry>
        </mxCell>
        <mxCell id="AZiQQv1GhbqMDrCBCahB-57" value="maintenance" style="shape=partialRectangle;connectable=0;fillColor=none;top=0;left=0;bottom=0;right=0;align=left;spacingLeft=6;overflow=hidden;whiteSpace=wrap;html=1;fontSize=16;fontStyle=1" parent="AZiQQv1GhbqMDrCBCahB-55" vertex="1">
          <mxGeometry x="30" width="215" height="40" as="geometry">
            <mxRectangle width="215" height="40" as="alternateBounds" />
          </mxGeometry>
        </mxCell>
        <mxCell id="AZiQQv1GhbqMDrCBCahB-58" value="" style="shape=tableRow;horizontal=0;startSize=0;swimlaneHead=0;swimlaneBody=0;fillColor=none;collapsible=0;dropTarget=0;points=[[0,0.5],[1,0.5]];portConstraint=eastwest;top=0;left=0;right=0;bottom=0;fontSize=16;fontStyle=1" parent="AZiQQv1GhbqMDrCBCahB-33" vertex="1">
          <mxGeometry y="360" width="245" height="40" as="geometry" />
        </mxCell>
        <mxCell id="AZiQQv1GhbqMDrCBCahB-59" value="" style="shape=partialRectangle;connectable=0;fillColor=none;top=0;left=0;bottom=0;right=0;editable=1;overflow=hidden;whiteSpace=wrap;html=1;fontSize=16;fontStyle=1" parent="AZiQQv1GhbqMDrCBCahB-58" vertex="1">
          <mxGeometry width="30" height="40" as="geometry">
            <mxRectangle width="30" height="40" as="alternateBounds" />
          </mxGeometry>
        </mxCell>
        <mxCell id="AZiQQv1GhbqMDrCBCahB-60" value="cost" style="shape=partialRectangle;connectable=0;fillColor=none;top=0;left=0;bottom=0;right=0;align=left;spacingLeft=6;overflow=hidden;whiteSpace=wrap;html=1;fontSize=16;fontStyle=1" parent="AZiQQv1GhbqMDrCBCahB-58" vertex="1">
          <mxGeometry x="30" width="215" height="40" as="geometry">
            <mxRectangle width="215" height="40" as="alternateBounds" />
          </mxGeometry>
        </mxCell>
        <mxCell id="AZiQQv1GhbqMDrCBCahB-61" value="" style="shape=tableRow;horizontal=0;startSize=0;swimlaneHead=0;swimlaneBody=0;fillColor=none;collapsible=0;dropTarget=0;points=[[0,0.5],[1,0.5]];portConstraint=eastwest;top=0;left=0;right=0;bottom=0;fontSize=16;fontStyle=1" parent="AZiQQv1GhbqMDrCBCahB-33" vertex="1">
          <mxGeometry y="400" width="245" height="40" as="geometry" />
        </mxCell>
        <mxCell id="AZiQQv1GhbqMDrCBCahB-62" value="" style="shape=partialRectangle;connectable=0;fillColor=none;top=0;left=0;bottom=0;right=0;editable=1;overflow=hidden;whiteSpace=wrap;html=1;fontSize=16;fontStyle=1" parent="AZiQQv1GhbqMDrCBCahB-61" vertex="1">
          <mxGeometry width="30" height="40" as="geometry">
            <mxRectangle width="30" height="40" as="alternateBounds" />
          </mxGeometry>
        </mxCell>
        <mxCell id="AZiQQv1GhbqMDrCBCahB-63" value="product_line" style="shape=partialRectangle;connectable=0;fillColor=none;top=0;left=0;bottom=0;right=0;align=left;spacingLeft=6;overflow=hidden;whiteSpace=wrap;html=1;fontSize=16;fontStyle=1" parent="AZiQQv1GhbqMDrCBCahB-61" vertex="1">
          <mxGeometry x="30" width="215" height="40" as="geometry">
            <mxRectangle width="215" height="40" as="alternateBounds" />
          </mxGeometry>
        </mxCell>
        <mxCell id="AZiQQv1GhbqMDrCBCahB-67" value="" style="shape=tableRow;horizontal=0;startSize=0;swimlaneHead=0;swimlaneBody=0;fillColor=none;collapsible=0;dropTarget=0;points=[[0,0.5],[1,0.5]];portConstraint=eastwest;top=0;left=0;right=0;bottom=0;fontSize=16;fontStyle=1" parent="AZiQQv1GhbqMDrCBCahB-33" vertex="1">
          <mxGeometry y="440" width="245" height="40" as="geometry" />
        </mxCell>
        <mxCell id="AZiQQv1GhbqMDrCBCahB-68" value="" style="shape=partialRectangle;connectable=0;fillColor=none;top=0;left=0;bottom=0;right=0;editable=1;overflow=hidden;whiteSpace=wrap;html=1;fontSize=16;fontStyle=1" parent="AZiQQv1GhbqMDrCBCahB-67" vertex="1">
          <mxGeometry width="30" height="40" as="geometry">
            <mxRectangle width="30" height="40" as="alternateBounds" />
          </mxGeometry>
        </mxCell>
        <mxCell id="AZiQQv1GhbqMDrCBCahB-69" value="start_date" style="shape=partialRectangle;connectable=0;fillColor=none;top=0;left=0;bottom=0;right=0;align=left;spacingLeft=6;overflow=hidden;whiteSpace=wrap;html=1;fontSize=16;fontStyle=1" parent="AZiQQv1GhbqMDrCBCahB-67" vertex="1">
          <mxGeometry x="30" width="215" height="40" as="geometry">
            <mxRectangle width="215" height="40" as="alternateBounds" />
          </mxGeometry>
        </mxCell>
        <mxCell id="PCh8BcH4YkxV38I2dvT--1" value="gold.fact_sales" style="shape=table;startSize=40;container=1;collapsible=1;childLayout=tableLayout;fixedRows=1;rowLines=0;fontStyle=1;align=center;resizeLast=1;html=1;rounded=1;fillColor=#dae8fc;strokeColor=#6c8ebf;fontSize=16;" vertex="1" parent="1">
          <mxGeometry x="735" y="220" width="245" height="400" as="geometry" />
        </mxCell>
        <mxCell id="PCh8BcH4YkxV38I2dvT--5" value="" style="shape=tableRow;horizontal=0;startSize=0;swimlaneHead=0;swimlaneBody=0;fillColor=none;collapsible=0;dropTarget=0;points=[[0,0.5],[1,0.5]];portConstraint=eastwest;top=0;left=0;right=0;bottom=0;fontSize=16;fontStyle=1" vertex="1" parent="PCh8BcH4YkxV38I2dvT--1">
          <mxGeometry y="40" width="245" height="40" as="geometry" />
        </mxCell>
        <mxCell id="PCh8BcH4YkxV38I2dvT--6" value="" style="shape=partialRectangle;connectable=0;fillColor=none;top=0;left=0;bottom=0;right=0;editable=1;overflow=hidden;whiteSpace=wrap;html=1;fontSize=16;fontStyle=1" vertex="1" parent="PCh8BcH4YkxV38I2dvT--5">
          <mxGeometry width="40" height="40" as="geometry">
            <mxRectangle width="40" height="40" as="alternateBounds" />
          </mxGeometry>
        </mxCell>
        <mxCell id="PCh8BcH4YkxV38I2dvT--7" value="order_number" style="shape=partialRectangle;connectable=0;fillColor=none;top=0;left=0;bottom=0;right=0;align=left;spacingLeft=6;overflow=hidden;whiteSpace=wrap;html=1;fontSize=16;fontStyle=1" vertex="1" parent="PCh8BcH4YkxV38I2dvT--5">
          <mxGeometry x="40" width="205" height="40" as="geometry">
            <mxRectangle width="205" height="40" as="alternateBounds" />
          </mxGeometry>
        </mxCell>
        <mxCell id="PCh8BcH4YkxV38I2dvT--8" value="" style="shape=tableRow;horizontal=0;startSize=0;swimlaneHead=0;swimlaneBody=0;fillColor=none;collapsible=0;dropTarget=0;points=[[0,0.5],[1,0.5]];portConstraint=eastwest;top=0;left=0;right=0;bottom=0;fontSize=16;fontStyle=1" vertex="1" parent="PCh8BcH4YkxV38I2dvT--1">
          <mxGeometry y="80" width="245" height="40" as="geometry" />
        </mxCell>
        <mxCell id="PCh8BcH4YkxV38I2dvT--9" value="FK1" style="shape=partialRectangle;connectable=0;fillColor=none;top=0;left=0;bottom=0;right=0;editable=1;overflow=hidden;whiteSpace=wrap;html=1;fontSize=16;fontStyle=1" vertex="1" parent="PCh8BcH4YkxV38I2dvT--8">
          <mxGeometry width="40" height="40" as="geometry">
            <mxRectangle width="40" height="40" as="alternateBounds" />
          </mxGeometry>
        </mxCell>
        <mxCell id="PCh8BcH4YkxV38I2dvT--10" value="product_key" style="shape=partialRectangle;connectable=0;fillColor=none;top=0;left=0;bottom=0;right=0;align=left;spacingLeft=6;overflow=hidden;whiteSpace=wrap;html=1;fontSize=16;fontStyle=1" vertex="1" parent="PCh8BcH4YkxV38I2dvT--8">
          <mxGeometry x="40" width="205" height="40" as="geometry">
            <mxRectangle width="205" height="40" as="alternateBounds" />
          </mxGeometry>
        </mxCell>
        <mxCell id="PCh8BcH4YkxV38I2dvT--11" value="" style="shape=tableRow;horizontal=0;startSize=0;swimlaneHead=0;swimlaneBody=0;fillColor=none;collapsible=0;dropTarget=0;points=[[0,0.5],[1,0.5]];portConstraint=eastwest;top=0;left=0;right=0;bottom=0;fontSize=16;fontStyle=1" vertex="1" parent="PCh8BcH4YkxV38I2dvT--1">
          <mxGeometry y="120" width="245" height="40" as="geometry" />
        </mxCell>
        <mxCell id="PCh8BcH4YkxV38I2dvT--12" value="FK2" style="shape=partialRectangle;connectable=0;fillColor=none;top=0;left=0;bottom=0;right=0;editable=1;overflow=hidden;whiteSpace=wrap;html=1;fontSize=16;fontStyle=1" vertex="1" parent="PCh8BcH4YkxV38I2dvT--11">
          <mxGeometry width="40" height="40" as="geometry">
            <mxRectangle width="40" height="40" as="alternateBounds" />
          </mxGeometry>
        </mxCell>
        <mxCell id="PCh8BcH4YkxV38I2dvT--13" value="customer_key" style="shape=partialRectangle;connectable=0;fillColor=none;top=0;left=0;bottom=0;right=0;align=left;spacingLeft=6;overflow=hidden;whiteSpace=wrap;html=1;fontSize=16;fontStyle=1" vertex="1" parent="PCh8BcH4YkxV38I2dvT--11">
          <mxGeometry x="40" width="205" height="40" as="geometry">
            <mxRectangle width="205" height="40" as="alternateBounds" />
          </mxGeometry>
        </mxCell>
        <mxCell id="PCh8BcH4YkxV38I2dvT--14" value="" style="shape=tableRow;horizontal=0;startSize=0;swimlaneHead=0;swimlaneBody=0;fillColor=none;collapsible=0;dropTarget=0;points=[[0,0.5],[1,0.5]];portConstraint=eastwest;top=0;left=0;right=0;bottom=0;fontSize=16;fontStyle=1" vertex="1" parent="PCh8BcH4YkxV38I2dvT--1">
          <mxGeometry y="160" width="245" height="40" as="geometry" />
        </mxCell>
        <mxCell id="PCh8BcH4YkxV38I2dvT--15" value="" style="shape=partialRectangle;connectable=0;fillColor=none;top=0;left=0;bottom=0;right=0;editable=1;overflow=hidden;whiteSpace=wrap;html=1;fontSize=16;fontStyle=1" vertex="1" parent="PCh8BcH4YkxV38I2dvT--14">
          <mxGeometry width="40" height="40" as="geometry">
            <mxRectangle width="40" height="40" as="alternateBounds" />
          </mxGeometry>
        </mxCell>
        <mxCell id="PCh8BcH4YkxV38I2dvT--16" value="order_date" style="shape=partialRectangle;connectable=0;fillColor=none;top=0;left=0;bottom=0;right=0;align=left;spacingLeft=6;overflow=hidden;whiteSpace=wrap;html=1;fontSize=16;fontStyle=1" vertex="1" parent="PCh8BcH4YkxV38I2dvT--14">
          <mxGeometry x="40" width="205" height="40" as="geometry">
            <mxRectangle width="205" height="40" as="alternateBounds" />
          </mxGeometry>
        </mxCell>
        <mxCell id="PCh8BcH4YkxV38I2dvT--17" value="" style="shape=tableRow;horizontal=0;startSize=0;swimlaneHead=0;swimlaneBody=0;fillColor=none;collapsible=0;dropTarget=0;points=[[0,0.5],[1,0.5]];portConstraint=eastwest;top=0;left=0;right=0;bottom=0;fontSize=16;fontStyle=1" vertex="1" parent="PCh8BcH4YkxV38I2dvT--1">
          <mxGeometry y="200" width="245" height="40" as="geometry" />
        </mxCell>
        <mxCell id="PCh8BcH4YkxV38I2dvT--18" value="" style="shape=partialRectangle;connectable=0;fillColor=none;top=0;left=0;bottom=0;right=0;editable=1;overflow=hidden;whiteSpace=wrap;html=1;fontSize=16;fontStyle=1" vertex="1" parent="PCh8BcH4YkxV38I2dvT--17">
          <mxGeometry width="40" height="40" as="geometry">
            <mxRectangle width="40" height="40" as="alternateBounds" />
          </mxGeometry>
        </mxCell>
        <mxCell id="PCh8BcH4YkxV38I2dvT--19" value="shipping_date" style="shape=partialRectangle;connectable=0;fillColor=none;top=0;left=0;bottom=0;right=0;align=left;spacingLeft=6;overflow=hidden;whiteSpace=wrap;html=1;fontSize=16;fontStyle=1" vertex="1" parent="PCh8BcH4YkxV38I2dvT--17">
          <mxGeometry x="40" width="205" height="40" as="geometry">
            <mxRectangle width="205" height="40" as="alternateBounds" />
          </mxGeometry>
        </mxCell>
        <mxCell id="PCh8BcH4YkxV38I2dvT--20" value="" style="shape=tableRow;horizontal=0;startSize=0;swimlaneHead=0;swimlaneBody=0;fillColor=none;collapsible=0;dropTarget=0;points=[[0,0.5],[1,0.5]];portConstraint=eastwest;top=0;left=0;right=0;bottom=0;fontSize=16;fontStyle=1" vertex="1" parent="PCh8BcH4YkxV38I2dvT--1">
          <mxGeometry y="240" width="245" height="40" as="geometry" />
        </mxCell>
        <mxCell id="PCh8BcH4YkxV38I2dvT--21" value="" style="shape=partialRectangle;connectable=0;fillColor=none;top=0;left=0;bottom=0;right=0;editable=1;overflow=hidden;whiteSpace=wrap;html=1;fontSize=16;fontStyle=1" vertex="1" parent="PCh8BcH4YkxV38I2dvT--20">
          <mxGeometry width="40" height="40" as="geometry">
            <mxRectangle width="40" height="40" as="alternateBounds" />
          </mxGeometry>
        </mxCell>
        <mxCell id="PCh8BcH4YkxV38I2dvT--22" value="due_date" style="shape=partialRectangle;connectable=0;fillColor=none;top=0;left=0;bottom=0;right=0;align=left;spacingLeft=6;overflow=hidden;whiteSpace=wrap;html=1;fontSize=16;fontStyle=1" vertex="1" parent="PCh8BcH4YkxV38I2dvT--20">
          <mxGeometry x="40" width="205" height="40" as="geometry">
            <mxRectangle width="205" height="40" as="alternateBounds" />
          </mxGeometry>
        </mxCell>
        <mxCell id="PCh8BcH4YkxV38I2dvT--23" value="" style="shape=tableRow;horizontal=0;startSize=0;swimlaneHead=0;swimlaneBody=0;fillColor=none;collapsible=0;dropTarget=0;points=[[0,0.5],[1,0.5]];portConstraint=eastwest;top=0;left=0;right=0;bottom=0;fontSize=16;fontStyle=1" vertex="1" parent="PCh8BcH4YkxV38I2dvT--1">
          <mxGeometry y="280" width="245" height="40" as="geometry" />
        </mxCell>
        <mxCell id="PCh8BcH4YkxV38I2dvT--24" value="" style="shape=partialRectangle;connectable=0;fillColor=none;top=0;left=0;bottom=0;right=0;editable=1;overflow=hidden;whiteSpace=wrap;html=1;fontSize=16;fontStyle=1" vertex="1" parent="PCh8BcH4YkxV38I2dvT--23">
          <mxGeometry width="40" height="40" as="geometry">
            <mxRectangle width="40" height="40" as="alternateBounds" />
          </mxGeometry>
        </mxCell>
        <mxCell id="PCh8BcH4YkxV38I2dvT--25" value="sales_amount" style="shape=partialRectangle;connectable=0;fillColor=none;top=0;left=0;bottom=0;right=0;align=left;spacingLeft=6;overflow=hidden;whiteSpace=wrap;html=1;fontSize=16;fontStyle=1" vertex="1" parent="PCh8BcH4YkxV38I2dvT--23">
          <mxGeometry x="40" width="205" height="40" as="geometry">
            <mxRectangle width="205" height="40" as="alternateBounds" />
          </mxGeometry>
        </mxCell>
        <mxCell id="PCh8BcH4YkxV38I2dvT--26" value="" style="shape=tableRow;horizontal=0;startSize=0;swimlaneHead=0;swimlaneBody=0;fillColor=none;collapsible=0;dropTarget=0;points=[[0,0.5],[1,0.5]];portConstraint=eastwest;top=0;left=0;right=0;bottom=0;fontSize=16;fontStyle=1" vertex="1" parent="PCh8BcH4YkxV38I2dvT--1">
          <mxGeometry y="320" width="245" height="40" as="geometry" />
        </mxCell>
        <mxCell id="PCh8BcH4YkxV38I2dvT--27" value="" style="shape=partialRectangle;connectable=0;fillColor=none;top=0;left=0;bottom=0;right=0;editable=1;overflow=hidden;whiteSpace=wrap;html=1;fontSize=16;fontStyle=1" vertex="1" parent="PCh8BcH4YkxV38I2dvT--26">
          <mxGeometry width="40" height="40" as="geometry">
            <mxRectangle width="40" height="40" as="alternateBounds" />
          </mxGeometry>
        </mxCell>
        <mxCell id="PCh8BcH4YkxV38I2dvT--28" value="quantity" style="shape=partialRectangle;connectable=0;fillColor=none;top=0;left=0;bottom=0;right=0;align=left;spacingLeft=6;overflow=hidden;whiteSpace=wrap;html=1;fontSize=16;fontStyle=1" vertex="1" parent="PCh8BcH4YkxV38I2dvT--26">
          <mxGeometry x="40" width="205" height="40" as="geometry">
            <mxRectangle width="205" height="40" as="alternateBounds" />
          </mxGeometry>
        </mxCell>
        <mxCell id="PCh8BcH4YkxV38I2dvT--29" value="" style="shape=tableRow;horizontal=0;startSize=0;swimlaneHead=0;swimlaneBody=0;fillColor=none;collapsible=0;dropTarget=0;points=[[0,0.5],[1,0.5]];portConstraint=eastwest;top=0;left=0;right=0;bottom=0;fontSize=16;fontStyle=1" vertex="1" parent="PCh8BcH4YkxV38I2dvT--1">
          <mxGeometry y="360" width="245" height="40" as="geometry" />
        </mxCell>
        <mxCell id="PCh8BcH4YkxV38I2dvT--30" value="" style="shape=partialRectangle;connectable=0;fillColor=none;top=0;left=0;bottom=0;right=0;editable=1;overflow=hidden;whiteSpace=wrap;html=1;fontSize=16;fontStyle=1" vertex="1" parent="PCh8BcH4YkxV38I2dvT--29">
          <mxGeometry width="40" height="40" as="geometry">
            <mxRectangle width="40" height="40" as="alternateBounds" />
          </mxGeometry>
        </mxCell>
        <mxCell id="PCh8BcH4YkxV38I2dvT--31" value="price" style="shape=partialRectangle;connectable=0;fillColor=none;top=0;left=0;bottom=0;right=0;align=left;spacingLeft=6;overflow=hidden;whiteSpace=wrap;html=1;fontSize=16;fontStyle=1" vertex="1" parent="PCh8BcH4YkxV38I2dvT--29">
          <mxGeometry x="40" width="205" height="40" as="geometry">
            <mxRectangle width="205" height="40" as="alternateBounds" />
          </mxGeometry>
        </mxCell>
        <mxCell id="PCh8BcH4YkxV38I2dvT--35" value="" style="edgeStyle=entityRelationEdgeStyle;fontSize=12;html=1;endArrow=ERzeroToMany;startArrow=ERmandOne;rounded=0;exitX=1;exitY=0.5;exitDx=0;exitDy=0;entryX=0;entryY=0.5;entryDx=0;entryDy=0;" edge="1" parent="1" source="AZiQQv1GhbqMDrCBCahB-3" target="PCh8BcH4YkxV38I2dvT--11">
          <mxGeometry width="100" height="100" relative="1" as="geometry">
            <mxPoint x="610" y="430" as="sourcePoint" />
            <mxPoint x="710" y="330" as="targetPoint" />
          </mxGeometry>
        </mxCell>
        <mxCell id="PCh8BcH4YkxV38I2dvT--36" value="" style="edgeStyle=entityRelationEdgeStyle;fontSize=12;html=1;endArrow=ERzeroToMany;startArrow=ERmandOne;rounded=0;exitX=0;exitY=0.5;exitDx=0;exitDy=0;entryX=1;entryY=0.5;entryDx=0;entryDy=0;" edge="1" parent="1" source="AZiQQv1GhbqMDrCBCahB-34" target="PCh8BcH4YkxV38I2dvT--8">
          <mxGeometry width="100" height="100" relative="1" as="geometry">
            <mxPoint x="1000" y="500" as="sourcePoint" />
            <mxPoint x="1100" y="400" as="targetPoint" />
            <Array as="points">
              <mxPoint x="1010" y="320" />
            </Array>
          </mxGeometry>
        </mxCell>
        <mxCell id="PCh8BcH4YkxV38I2dvT--37" value="&lt;h1 style=&quot;margin-top: 0px;&quot;&gt;&lt;font style=&quot;font-size: 18px;&quot;&gt;&lt;u&gt;Sales Calculation&lt;/u&gt;&lt;/font&gt;&lt;/h1&gt;&lt;p&gt;&lt;font style=&quot;font-size: 15px;&quot;&gt;Sales = Quantity * price&lt;/font&gt;&lt;/p&gt;" style="text;html=1;whiteSpace=wrap;overflow=hidden;rounded=0;" vertex="1" parent="1">
          <mxGeometry x="890" y="640" width="180" height="120" as="geometry" />
        </mxCell>
        <mxCell id="PCh8BcH4YkxV38I2dvT--38" value="" style="endArrow=none;dashed=1;html=1;dashPattern=1 3;strokeWidth=2;rounded=0;entryX=0;entryY=0;entryDx=0;entryDy=0;" edge="1" parent="1" source="PCh8BcH4YkxV38I2dvT--23" target="PCh8BcH4YkxV38I2dvT--37">
          <mxGeometry width="50" height="50" relative="1" as="geometry">
            <mxPoint x="770" y="710" as="sourcePoint" />
            <mxPoint x="820" y="660" as="targetPoint" />
          </mxGeometry>
        </mxCell>
        <mxCell id="PCh8BcH4YkxV38I2dvT--40" value="" style="endArrow=none;dashed=1;html=1;dashPattern=1 3;strokeWidth=2;rounded=0;entryX=1;entryY=0.5;entryDx=0;entryDy=0;exitX=0.041;exitY=1;exitDx=0;exitDy=0;exitPerimeter=0;" edge="1" parent="1" source="AZiQQv1GhbqMDrCBCahB-18">
          <mxGeometry width="50" height="50" relative="1" as="geometry">
            <mxPoint x="60" y="340" as="sourcePoint" />
            <mxPoint x="250" y="480" as="targetPoint" />
          </mxGeometry>
        </mxCell>
        <mxCell id="PCh8BcH4YkxV38I2dvT--41" value="&lt;font style=&quot;font-size: 18px;&quot;&gt;&lt;b&gt;&lt;u&gt;Marital Status&lt;/u&gt;&lt;/b&gt;&lt;/font&gt;&lt;div&gt;&lt;font style=&quot;font-size: 16px;&quot;&gt;- Married&lt;/font&gt;&lt;/div&gt;&lt;div&gt;&lt;font style=&quot;font-size: 16px;&quot;&gt;- Single&lt;/font&gt;&lt;/div&gt;" style="rounded=0;whiteSpace=wrap;html=1;align=left;strokeColor=none;fillColor=none;" vertex="1" parent="1">
          <mxGeometry x="120" y="450" width="130" height="80" as="geometry" />
        </mxCell>
        <mxCell id="PCh8BcH4YkxV38I2dvT--43" value="" style="endArrow=none;dashed=1;html=1;dashPattern=1 3;strokeWidth=2;rounded=0;entryX=1;entryY=0.5;entryDx=0;entryDy=0;exitX=0;exitY=0.25;exitDx=0;exitDy=0;" edge="1" parent="1" source="PCh8BcH4YkxV38I2dvT--44">
          <mxGeometry width="50" height="50" relative="1" as="geometry">
            <mxPoint x="1380" y="590" as="sourcePoint" />
            <mxPoint x="1310" y="570" as="targetPoint" />
          </mxGeometry>
        </mxCell>
        <mxCell id="PCh8BcH4YkxV38I2dvT--44" value="&lt;font style=&quot;font-size: 18px;&quot;&gt;&lt;b&gt;&lt;u&gt;maintenance&lt;/u&gt;&lt;/b&gt;&lt;/font&gt;&lt;div&gt;&lt;font style=&quot;font-size: 16px;&quot;&gt;- Yes&lt;/font&gt;&lt;/div&gt;&lt;div&gt;&lt;font style=&quot;font-size: 16px;&quot;&gt;- No&lt;/font&gt;&lt;/div&gt;" style="rounded=0;whiteSpace=wrap;html=1;align=left;strokeColor=none;fillColor=none;" vertex="1" parent="1">
          <mxGeometry x="1440" y="580" width="130" height="80" as="geometry" />
        </mxCell>
      </root>
    </mxGraphModel>
  </diagram>
</mxfile>
